<svg width="16" height="16" viewBox="0 0 16 16" fill="none" xmlns="http://www.w3.org/2000/svg">
<path d="M11.3549 1.64689C11.4015 1.69334 11.4384 1.74852 11.4636 1.80926C11.4888 1.87001 11.5018 1.93513 11.5018 2.00089C11.5018 2.06666 11.4888 2.13178 11.4636 2.19253C11.4384 2.25327 11.4015 2.30845 11.3549 2.35489L5.70789 8.00089L11.3549 13.6469C11.4488 13.7408 11.5015 13.8681 11.5015 14.0009C11.5015 14.1337 11.4488 14.261 11.3549 14.3549C11.261 14.4488 11.1337 14.5015 11.0009 14.5015C10.8681 14.5015 10.7408 14.4488 10.6469 14.3549L4.64689 8.35489C4.60033 8.30845 4.56339 8.25327 4.53818 8.19253C4.51297 8.13178 4.5 8.06666 4.5 8.00089C4.5 7.93513 4.51297 7.87001 4.53818 7.80926C4.56339 7.74852 4.60033 7.69334 4.64689 7.64689L10.6469 1.64689C10.6933 1.60033 10.7485 1.56339 10.8093 1.53818C10.87 1.51297 10.9351 1.5 11.0009 1.5C11.0667 1.5 11.1318 1.51297 11.1925 1.53818C11.2533 1.56339 11.3084 1.60033 11.3549 1.64689Z" fill="#4169E1"/>
</svg>
